/* XPM */
static char *f27c2d8272f44396e758232d0b9d5c3bsKyVYSsMkOinRVMb[] = {
/* columns rows colors chars-per-pixel */
"64 64 256 2 ",
"   c gray24",
".  c #3E3E3E",
"X  c #3F3F3F",
"o  c gray25",
"O  c #414141",
"+  c gray26",
"@  c #434343",
"#  c #444444",
"$  c gray27",
"%  c #464646",
"&  c gray28",
"*  c #484848",
"=  c #494949",
"-  c gray29",
";  c #4B4B4B",
":  c #4C4C4C",
">  c gray30",
",  c #4E4E4E",
"<  c gray31",
"1  c #505050",
"2  c #515151",
"3  c gray32",
"4  c #535353",
"5  c gray33",
"6  c #555555",
"7  c #565656",
"8  c gray34",
"9  c #585858",
"0  c gray35",
"q  c #5A5A5A",
"w  c #5B5B5B",
"e  c gray36",
"r  c #5D5D5D",
"t  c #5F5F5F",
"y  c #606060",
"u  c gray38",
"i  c #626262",
"p  c gray39",
"a  c #646464",
"s  c #656565",
"d  c gray40",
"f  c #676767",
"g  c #686868",
"h  c DimGray",
"j  c #6A6A6A",
"k  c gray42",
"l  c #6C6C6C",
"z  c #6D6D6D",
"x  c gray43",
"c  c #6F6F6F",
"v  c gray44",
"b  c #717171",
"n  c #727272",
"m  c gray45",
"M  c #747474",
"N  c gray46",
"B  c #767676",
"V  c #777777",
"C  c gray47",
"Z  c #797979",
"A  c gray48",
"S  c #7B7B7B",
"D  c #7C7C7C",
"F  c gray49",
"G  c #7E7E7E",
"H  c gray50",
"J  c #808080",
"K  c #818181",
"L  c gray51",
"P  c #838383",
"I  c #848484",
"U  c gray52",
"Y  c #868686",
"T  c gray53",
"R  c #888888",
"E  c #898989",
"W  c gray54",
"Q  c #8B8B8B",
"!  c gray55",
"~  c #8D8D8D",
"^  c #8E8E8E",
"/  c gray56",
"(  c #909090",
")  c gray57",
"_  c #929292",
"`  c #939393",
"'  c gray58",
"]  c #959595",
"[  c gray59",
"{  c #979797",
"}  c #989898",
"|  c gray60",
" . c #9A9A9A",
".. c #9B9B9B",
"X. c gray61",
"o. c #9D9D9D",
"O. c #9F9F9F",
"+. c #A0A0A0",
"@. c gray63",
"#. c black",
"$. c black",
"%. c black",
"&. c black",
"*. c black",
"=. c black",
"-. c black",
";. c black",
":. c black",
">. c black",
",. c black",
"<. c black",
"1. c black",
"2. c black",
"3. c black",
"4. c black",
"5. c black",
"6. c black",
"7. c black",
"8. c black",
"9. c black",
"0. c black",
"q. c black",
"w. c black",
"e. c black",
"r. c black",
"t. c black",
"y. c black",
"u. c black",
"i. c black",
"p. c black",
"a. c black",
"s. c black",
"d. c black",
"f. c black",
"g. c black",
"h. c black",
"j. c black",
"k. c black",
"l. c black",
"z. c black",
"x. c black",
"c. c black",
"v. c black",
"b. c black",
"n. c black",
"m. c black",
"M. c black",
"N. c black",
"B. c black",
"V. c black",
"C. c black",
"Z. c black",
"A. c black",
"S. c black",
"D. c black",
"F. c black",
"G. c black",
"H. c black",
"J. c black",
"K. c black",
"L. c black",
"P. c black",
"I. c black",
"U. c black",
"Y. c black",
"T. c black",
"R. c black",
"E. c black",
"W. c black",
"Q. c black",
"!. c black",
"~. c black",
"^. c black",
"/. c black",
"(. c black",
"). c black",
"_. c black",
"`. c black",
"'. c black",
"]. c black",
"[. c black",
"{. c black",
"}. c black",
"|. c black",
" X c black",
".X c black",
"XX c black",
"oX c black",
"OX c black",
"+X c black",
"@X c black",
"#X c black",
"$X c black",
"%X c black",
"&X c black",
"*X c black",
"=X c black",
"-X c black",
";X c black",
":X c black",
">X c black",
",X c black",
"<X c black",
"1X c black",
"2X c black",
"3X c black",
"4X c black",
"5X c black",
"6X c black",
"7X c black",
"8X c black",
"9X c black",
"0X c black",
"qX c black",
"wX c black",
"eX c black",
"rX c black",
"tX c black",
"yX c black",
"uX c black",
"iX c black",
"pX c black",
"aX c black",
"sX c black",
"dX c black",
"fX c black",
"gX c black",
"hX c black",
"jX c black",
"kX c black",
"lX c black",
"zX c black",
"xX c black",
"cX c black",
"vX c black",
"bX c black",
"nX c black",
"mX c black",
"MX c black",
"NX c black",
"BX c black",
"VX c black",
"CX c black",
"ZX c black",
"AX c black",
"SX c black",
"DX c black",
"FX c black",
"GX c black",
"HX c black",
"JX c black",
"KX c black",
"LX c black",
"PX c black",
"IX c black",
"UX c black",
/* pixels */
"@.+.+.+.+...| [ ' ' ' ' ' ' ' ' ' ' ' [ [ ] ' ' ' ' ' ' ' ' ' [ | | | | | | | | | o.+.+.+.+.+.+.o.| | | | | | | [ _ ~ S 3 q w g ",
"+.....} ] ` ` _ / ^ ^ ^ ^ ^ ^ / ( ( _ ` ` _ / ^ ^ ^ ^ ^ / ( ( ` ` ` ` ` ` ` ` ` ` [ .. ... . ... .[ ` ` ` ` ` ` ( Q F k = 1 w x ",
"+..._ ! ! ! ! ! Q W W W W Q Q Q ! ! ! ! ! Q Q Q Q W W Q Q ! ! ! ! Q E Q ! ! ! ! ! ! _ ' ' ' ' ' ' ` / ! ! ! ! ! R F b k & $ 9 c ",
"+. .^ U I I I I I I I I I I I P K K L I Y Y Y Y Y Y Y Y Y Y Y Y Y G Z S P I I I L K L R ~ ~ ~ ~ ~ ~ ! I I I I I G B b k & # 8 c ",
"+. .! I U T J H H J I Y Y Y U J Z Z Z U R R R R R R R R R R R R R R S m C H H F Z Z Z Z F L Y T R R T J H H H H D B b k & # 8 v ",
"+.} ! I U R U H L T R R R R R Y Z Z Z J R R R T Y Y Y Y Y Y T R R Y V m m V G G A Z Z Z Z Z Z A F L L G G G H H D B b k & # 8 v ",
"+.{ ! I J T R R R R U K F F F A Z Z Z Z F I R R K H H H H H Y R Y C m m m m B G H H S Z Z Z Z Z Z A A Z Z Z D H D N k p # @ 8 v ",
"+.[ ! U H J Y R Y J S Z Z Z Z Z Z Z A S Z A U R T L K J H H L P B m V Z C V M F H H H S Z Z Z Z A F Z Z Z Z Z S C x d y @ @ 6 c ",
"o.` ! P S A Z Z Z Z Z Z Z Z Z Z A J T T J Z D R R R R R K H G S Z Z T R R T Y P H H H H G F F F G H F Z V B N m v k s y @ @ 5 k ",
"[ ` E G Z Z Z Z Z Z Z Z Z Z A J U R R R U Z Z F U Y T Y J H H G G H U T R R R R K H H H H H H H H H C m m m m m v k d y @ @ 4 s ",
"' ) Y G Z Z Z Z Z Z Z Z F I Y R R R R R U A Z Z Z A F H H H S Z Z A G J J P R R Y Y Y Y U J H H H F m m m m m m v k d y @ @ 2 a ",
"' ^ Y G V B B V C Z Z A Y R R R R R R T J G A Z Z Z Z S G D Z Z Z A G H H J T R R R R R R L H H H D m m M N M m v k s y @ @ 2 a ",
"' ^ Y F m m m m M A S G T R I L P I P J H H F Z Z Z Z Z Z Z Z Z S G H H H H J L L J J J H A G H H D m N P T Y S v k s y @ + < p ",
"` | ) J M m m m m A H H I Y J H H H H H H H H S Z Z Z Z Z Z Z Z A D F F F F F F S Z Z A A S H H H G N V T R R T M k s y # X : y ",
"[ ..' R C B m m m m A H H H H H J U T T T Y K H G G G S Z Z Z Z Z Z Z Z Z Z Z Z Z Z S H H H H H H H G D J P R R F b g s $   : t ",
"X...' R Z Z N m m m B A S S F G Y R R R R R P G F F G F A Z Z Z Z Z Z Z Z Z Z A A S H H H H H F S G H H H P R R F B v k #   : i ",
"+...' Y Z Z Z C V V Z Z Z F Y T R R K F G F A Z Z S K I T T T Y U P J G G G G H H H K K B M m m m M G H K R R Y D B b k @   : f ",
"+...' L Z Z Z Z Z Z Z Z Z H T R R I A Z Z Z Z A P R R R R R R R R R R R Y P L K K P R T V m m m m m D H I R T J D B v k @   > z ",
"+...` J Z Z Z Z Z Z Z Z Z Z D F D A Z Z Z Z Z J R R R R R R R R R R R R R R R R R R R I M m m M C A H H U R I H D B b k @   < c ",
"+...) H Z Z Z Z Z Z Z Z Z Z Z Z Z Z Z Z V N N B P R R R R R R R R R R R R R R R T T P B m m M G H H H H I R L H S B b k @   2 v ",
"@.../ H Z Z A D F F D A Z Z Z Z Z A A N m m m m m F T R R R R R R R R R T L F M m M m m m M D H H H H G D D A A V M b k $   4 v ",
"+...~ G Z Z Z A A A A S D A A A F G V m m m m m m m N D P R R R R Y L F Z Z Z M m m m m N F H H H H F A Z Z Z Z B v z h & @ 7 c ",
"O.[ W G Z Z Z Z Z Z Z Z S H H H H V m m m m m m m m V Z F H J F Z Z Z Z Z Z Z C N M M Z G F A A A A Z Z Z Z Z Z B v k s % @ 5 z ",
"| ` E G Z Z Z Z Z Z Z Z A H H F B m m m m m m m m N V C C C C C Z Z Z Z Z Z Z Z Z Z A F S Z Z Z Z Z Z Z Z D G D B v k s % @ 5 h ",
"[ ( I Z B C A A V B B B C Z B v v v v v v v v v v v v v v v v v b N B B B B B B V C Z B B B M n N B B B B B A S N v k s % @ 5 g ",
"_ Q Z v v N B N b v v v v z k k k k k k k k k k k k k k k k k k k l c v b n M M M m v c x l k k k x v v v v n B b v k s % # 5 f ",
"~ D k k z b b x k k k k h d d d d d d d d d d d d d d d d d d d d d d x v x k k k k j d d d d d d d h k k k z b z k j s $ & 6 d ",
"S j g f j k k h s s s s a y y y y y y y y y y y y y y y y y y y y y y g j s s s s s s u y y y y y y p s s d j k j d s s @ : 8 p ",
"5 = & & & & & & % % $ $ # # @ O o o o O O + + + + + + + + + + + + + + $ % # # # # # # @ O o o o o O # $ % % & & & & $ # * 3 8 0 ",
"5 - o O @ # # # # # # @ O O O O O O O O O O O O O O O O O O O O O O O O @ @ @ + o . . o @ @ @ @ @ @ # # # # @ @ @ # & ; 1 4 3 3 ",
"3 3 < > < 5 6 7 8 8 8 7 6 6 4 2 2 2 2 2 2 2 2 2 2 2 2 2 2 2 2 2 2 2 2 4 6 4 1 > > > > > 4 6 6 6 6 6 6 6 6 5 3 2 2 2 3 2 1 2 3 3 ",
"t t t t u k x c c c v v v v c x g s a a a a a a u t y r 8 8 8 8 y a a p y t t t t t t y p s d d f f f g f s a a a a a u t t t t ",
"( ( ( ( } +.+.+.+.+.+.+.+.+.+.+.o.' ' ' ' ' ' _ ~ E U N , 9 9 t ] ' ' ( ( ( ( ( ( ( ( ( ` ' ' ' ' ' ' ] ' ' ' ' ' ' ' ` ( ( ( ( ",
"E E E Q _  ............... . ...} / ^ ^ ^ ^ ^ Q Y L m y + * 3 p ' / ^ ! Q Q ! Q W W W ! ^ ^ ^ ^ ^ ^ ^ ^ ^ ^ ^ ^ ^ ^ ^ ^ ^ ~ ! Q ",
"U Y R E E ~ ( ) ) ( ( ( / ^ ^ ^ ! Q W W W W W T G m d y o . < i ' ^ T Y Y Y Y Y Y T R R Y Y Y Y Y Y Y Y Y Y Y Y Y Y T T Y Y Y Y ",
"L P P P I I I I I I I I P P P P I G A S K I I P B k d y o   < a ' ^ Y J K L L P I Y Y Y I P J G G G G G G G G G G L I I L H G H ",
"A Z Z Z F H H H H G D A Z Z Z Z V m m m N H H H S n z d $ o 2 a ' ^ Q ! T T R R R R R R I H H S Z Z Z Z Z Z Z Z S H H H G D A A ",
"Z Z Z Z F G D S A Z V M M M M m m m m m B H H H D B b k & O 2 a ' / _ ~ R R R R R R R R Y H H G A Z Z Z Z Z Z A F H G A Z Z Z Z ",
"Z Z S F F Z Z Z Z Z M m m m m m m m m B G H H H D B b k & + 2 a ' ( _ ~ R R R R R R T I J H H H H G G G H H G G H F Z Z Z Z Z Z ",
"A G H G D G G G A Z M m m m m m m m B G J L I I J Z b k & + 1 a ] ` ) ~ R R R T I K H H J J H H H H K L P P K H F Z Z Z Z Z Z Z ",
"G H G H T R R R Y S V M m m m M N V A J T R R R I G B k & @ 1 a ' _ ! T L L K J H H K Y R T L H H L T R R R R K Z Z Z Z Z Z Z A ",
"J U Y R R R R R R I Z B m m V Z Z H T R R R R R I G V k & @ 2 a ' ( ! U K P P P L P R R R T L H H K T R R R R T H F S Z Z Z D H ",
"I R R R R R R R R R H C N V Z Z J R R R R R R R I A b h $ + 2 a ' / ! ! R R R R R R R T L J H H H H L R R R R R R R T H D G H H ",
"J Y T R R R R R R R R K F F S A I R R R R R R R H B x s # o 3 a ' ^ ! ~ R R R R R T U J D A A S H H H P T R R R R R R R T I P H ",
"H H J Y R R R R R R R R R R T I H J P I U U I K D N l s # o 3 a ' ^ Q T I T R R I G Z M m m m m S H H H J K L P Y R R R R R R L ",
"F G H L T R T L L Y R R R R R R R U I L J H H H D N k s # o 3 s ' ^ W T Y R R Y B m m m m m m m A G G G H H H H H K U T T T U G ",
"Z A G H J K J H H H J L P T R R R R R R U G H H S n k s # o 4 s ' ^ / ~ R R T Z m m m m m m M A S Z Z Z A D G H H H H H D S Z Z ",
"Z Z A F G G G G F S A D I R R T R R R R Y S D S B v k s # O 4 s ' ^ ^ ! T P Z m m m m m m C G G Z Z Z Z Z Z Z A S S S A Z Z Z Z ",
"Z Z Z Z Z Z Z Z Z Z Z J R R R R R R R R G Z Z Z B v k s # + 5 a ' ^ W U A N M m m m M C F H H H S Z Z Z Z Z Z Z Z Z Z Z Z Z Z Z ",
"Z Z Z Z Z Z Z Z Z Z Z J R R R R R R R L Z Z Z Z B v k s $ @ 5 s ' / Q I H H H G F G H H H H H H G A Z Z Z Z Z Z Z Z Z Z Z Z Z Z ",
"D D A Z Z Z Z Z Z A D G Y R R R R R I A Z A D S B v k h & @ 5 g } ` ! I H H H H J T R T U P K H S Z Z Z Z Z Z Z Z Z Z Z Z Z Z A ",
"H F F S A A A S F H H H H Y R R R I A Z C A S A N v k k % X < f | ` ~ R P P L J K R R R R R R T K Z Z Z Z Z D G F F G H A Z D H ",
"Z m m M S H H H H H H S Z A F H F Z C N m m m m m v l j @   : p  .] ` ~ R R R T K K P U R R R R R J Z Z Z F R R R R R R I G H H ",
"V m m m Z H H H H G A Z Z Z Z Z C N m m m m m m b v z h +   : i | | ' ~ R R R R R Y P L J U R R R Y G A Z D T R R R R R P H H H ",
"G A A S H H H G S Z Z Z S S V M m m m m m m m m v v x g +   : p  . .' ~ R R R R R R R R P J Y R R R R T D Z S I R R Y K H H H H ",
"H H H H H H H D Z Z Z A D V m m m m m m m m m m v v c d O   : p .. .' ~ R R R R R R R R U H J Y R R R R H Z Z F U U J H H H H H ",
"D D D D D D D A B B B B N v v v v v v v v v v v c v c i o   : i | { ) Y L A A D F G J H D D D D G G G F Z A S D D D D D D D D D ",
"M M M m N B B N m b v v l k k k k k k k k k k k l n v i o   : u ` ` U D m v v v n N B B B B B B B B B B B B B B M m m m m m m M ",
"d d d d d g c b b v c k d d d d d d d d d d g k v v v i o X > t ! H v l k k l v b b b b b b b v z l l z v b b x d d d d d d d d ",
"y y y y y y s k k k k a y y y y y y y u p h k k k k k d X # < y S d s s s s s f h j j j k j g d s s s s g j k d y y y y y y y y ",
"O o o o o o @ & & & & $ O o o o O @ # $ % & & & & & & $ & 2 9 w 5 % # # # # # # # # # $ & & # # # # # # # $ $ % # @ @ @ @ @ @ @ ",
"+ X         o # # # # # # # # # @ @ @ @ @ @ @ @ @ $ * : 3 8 q w q , + O O O O O O O O O @ @ + O O O O O O O O O # # # # # # # # ",
"6 7 5 2 1 2 6 6 5 5 5 5 5 5 5 4 3 2 2 2 2 2 2 2 3 4 4 6 7 9 0 w w q 7 3 3 4 4 4 4 4 6 9 0 9 8 5 4 3 2 2 2 2 2 4 6 6 6 6 6 6 6 6 ",
"k c v c c j g d a a a a a a a a a a a a a a a a a a a a a a a d h h h h h h h h h j c c c c c x j h g d d d f g g f d i w w w e "
};
