/* XPM */
static char *_70b886a3a7d4ec3a7d0f819a2d8296cDkebktKBlwocwe2c[] = {
/* columns rows colors chars-per-pixel */
"64 64 256 2 ",
"   c #676767",
".  c #686868",
"X  c DimGray",
"o  c #6A6A6A",
"O  c gray42",
"+  c #6C6C6C",
"@  c #6D6D6D",
"#  c gray43",
"$  c #6F6F6F",
"%  c gray44",
"&  c #717171",
"*  c #727272",
"=  c gray45",
"-  c #747474",
";  c gray46",
":  c #767676",
">  c #777777",
",  c gray47",
"<  c #797979",
"1  c gray48",
"2  c #7B7B7B",
"3  c #7C7C7C",
"4  c gray49",
"5  c #7E7E7E",
"6  c gray50",
"7  c #808080",
"8  c #818181",
"9  c gray51",
"0  c #838383",
"q  c #848484",
"w  c gray52",
"e  c #868686",
"r  c gray53",
"t  c #888888",
"y  c #898989",
"u  c gray54",
"i  c #8B8B8B",
"p  c gray55",
"a  c #8D8D8D",
"s  c #8E8E8E",
"d  c gray56",
"f  c #909090",
"g  c gray57",
"h  c #929292",
"j  c black",
"k  c black",
"l  c black",
"z  c black",
"x  c black",
"c  c black",
"v  c black",
"b  c black",
"n  c black",
"m  c black",
"M  c black",
"N  c black",
"B  c black",
"V  c black",
"C  c black",
"Z  c black",
"A  c black",
"S  c black",
"D  c black",
"F  c black",
"G  c black",
"H  c black",
"J  c black",
"K  c black",
"L  c black",
"P  c black",
"I  c black",
"U  c black",
"Y  c black",
"T  c black",
"R  c black",
"E  c black",
"W  c black",
"Q  c black",
"!  c black",
"~  c black",
"^  c black",
"/  c black",
"(  c black",
")  c black",
"_  c black",
"`  c black",
"'  c black",
"]  c black",
"[  c black",
"{  c black",
"}  c black",
"|  c black",
" . c black",
".. c black",
"X. c black",
"o. c black",
"O. c black",
"+. c black",
"@. c black",
"#. c black",
"$. c black",
"%. c black",
"&. c black",
"*. c black",
"=. c black",
"-. c black",
";. c black",
":. c black",
">. c black",
",. c black",
"<. c black",
"1. c black",
"2. c black",
"3. c black",
"4. c black",
"5. c black",
"6. c black",
"7. c black",
"8. c black",
"9. c black",
"0. c black",
"q. c black",
"w. c black",
"e. c black",
"r. c black",
"t. c black",
"y. c black",
"u. c black",
"i. c black",
"p. c black",
"a. c black",
"s. c black",
"d. c black",
"f. c black",
"g. c black",
"h. c black",
"j. c black",
"k. c black",
"l. c black",
"z. c black",
"x. c black",
"c. c black",
"v. c black",
"b. c black",
"n. c black",
"m. c black",
"M. c black",
"N. c black",
"B. c black",
"V. c black",
"C. c black",
"Z. c black",
"A. c black",
"S. c black",
"D. c black",
"F. c black",
"G. c black",
"H. c black",
"J. c black",
"K. c black",
"L. c black",
"P. c black",
"I. c black",
"U. c black",
"Y. c black",
"T. c black",
"R. c black",
"E. c black",
"W. c black",
"Q. c black",
"!. c black",
"~. c black",
"^. c black",
"/. c black",
"(. c black",
"). c black",
"_. c black",
"`. c black",
"'. c black",
"]. c black",
"[. c black",
"{. c black",
"}. c black",
"|. c black",
" X c black",
".X c black",
"XX c black",
"oX c black",
"OX c black",
"+X c black",
"@X c black",
"#X c black",
"$X c black",
"%X c black",
"&X c black",
"*X c black",
"=X c black",
"-X c black",
";X c black",
":X c black",
">X c black",
",X c black",
"<X c black",
"1X c black",
"2X c black",
"3X c black",
"4X c black",
"5X c black",
"6X c black",
"7X c black",
"8X c black",
"9X c black",
"0X c black",
"qX c black",
"wX c black",
"eX c black",
"rX c black",
"tX c black",
"yX c black",
"uX c black",
"iX c black",
"pX c black",
"aX c black",
"sX c black",
"dX c black",
"fX c black",
"gX c black",
"hX c black",
"jX c black",
"kX c black",
"lX c black",
"zX c black",
"xX c black",
"cX c black",
"vX c black",
"bX c black",
"nX c black",
"mX c black",
"MX c black",
"NX c black",
"BX c black",
"VX c black",
"CX c black",
"ZX c black",
"AX c black",
"SX c black",
"DX c black",
"FX c black",
"GX c black",
"HX c black",
"JX c black",
"KX c black",
"LX c black",
"PX c black",
"IX c black",
"UX c black",
/* pixels */
": - - - - - - = - - - - - - - - - - > 8 8 8 8 8 u f f g g g a 9 3 2 2 4 g g f 7 , > > 1 2 1 > ; - - - - - - - - ; : > 1 2 < , , ",
"2 2 < > - - - - - - - - - - - - - - < 2 2 2 3 t g f g g f g g f e 3 2 2 i g g d : - - - ; - - - - - - - - - - - - - - - : 1 2 2 ",
"2 2 2 2 2 , ; - - - - - - - - - ; 1 2 2 3 0 a g g g f g f g g g g p 4 < 4 g g g r , ; - - - - - - - * = - - - - - - - - - ; < 2 ",
": , 2 2 2 2 2 < > ; 1 2 2 2 3 5 9 e y s g g g f f g g f g d 5 w d a 6 - ; f g g g g g a u e 8 4 1 <   . , - - - - - - - - - - ; ",
"- - 2 2 2 2 2 2 2 r g g g g g g g g g g g g f g g f g f f u > - ; - - - - u g f g g g g g g g g g u +   , 1 : - - - - - - - - - ",
"- - : < 2 2 2 2 2 9 g g g g g g g g f g g g g g g g g g g f d 8 - - - - , f f f g g g g f g g g g g 0   ; 2 2 1 > - - - - - - = ",
"- -   X 2 2 2 2 2 2 7 i g g g g g g g g g g g g g g g f g g g g y > - - y g g g g g g g g f f g f f f 2 > : 2 2 2 2 , ; - - - = ",
"- = . o 2 1 - - - : > , 4 t f g g g g g h g g f g g f g g g f g g s 2 > a g g g g g g g g g g g g g g g g i e 8 3 2 2 2 < > - - ",
", < - ; 2 1 - - - - - - - - ; < 6 w u g g g g f g f g g g g g g g f f 9 ; 9 t u a s g g g g g f f g g g f g g g f p 4 2 2 2 2 < ",
"2 2 - - 2 2 > - - - - - - - - - - - - > 0 d g g g f r 4 6 q a g g f g g r : 1 2 2 2 3 6 9 i g g g g g f g g g g g g 9 2 2 2 2 2 ",
"2 >     < 2 + $ - - - - - - - - - - - - - % 0 i e , - - - - 8 g f g g g g a : 2 2 1 : > 2 2 t g g g g g f g g g g d 2 2 2 2 2 2 ",
"2 ,   . 1 2 .   * ; ; ; : > : : ; - - - $ # - - - - - - - - r g g i q q f g 2 > : ; - - - > < q a g g g g g g g g e 2 2 2 2 2 2 ",
"2 2 < < 6 r p d t 3 2 2 2 2 2 2 2 > . .   . @ ; - - - - - ; f g i 2 2 2 3 5 - - - - - - - - - - - > 4 9 e f g g d > - - - : 1 2 ",
"1 1 9 p g g g g g t 2 2 1 2 2 2 2 >           ; < , , > - > f g 9 2 2 2 2 2 : - - - - - 3 e 3 - ; 4 : - - : p g i - - - - - - > ",
"- 3 g g g g g g g g 5 1 - - > 1 2 2 2 > * +   X 1 2 2 2 - - 4 7 2 2 2 2 2 2 1 ; - - - 6 f g a , i g i : - - 3 y 2 - - - - = - - ",
"- ; u g g g g f g g y 2 - - - - ; > , < 1 2 +   , 1 < , ; - ; < 2 2 2 3 8 0 q w e 0 r f g f g f g f g s w 8 4 1 - - < 1 - - - - ",
"+ ; 2 6 i g g g f g f 7 ; - - - - - - - - - - - - - - - - - - - ; > < t g g g g g f g g g f g g g g g g g g g g e - s f + o o o ",
"  $ 2 2 2 9 g g g g g d < - - - - - - - - - - - - - - - - - - - - - - 5 f g g g g g g g g g g f g g g g g g f g w 1 g i         ",
". , 2 2 2 2 7 s g g g g t - - - - - - - - - - - - - - - - - - - - - - - : 0 d g g g g g g g g g g g f g g g f i # 5 g 9         ",
"* 2 2 2 2 2 2 2 9 y f g u - - - - - - - - - - - - - - - - - - - - - - - - - > w a g g g g g g g g g g g g g i ;   8 g <         ",
": : : ; ; ; - - - - ; 1 2 , - - - - - - - - - - - - - - - - - - - - - - ; > * @ 1 6 r g g g g g g g g a t 6 - - O - q o o     $ ",
"- - - - : ; - - - ; ; : 2 2 1 > ; - - - - - - - - - - - - - - - - - ; , 2 1 X   , 2 2 e g g g y 6 , - - : w 4 - * O . # < 1 < 2 ",
"- - - 2 f f 1 - 1 2 2 2 2 2 2 2 2 2 1 , : - - - - - - - - - - - ; < 2 1 +     X 2 2 2 3 u t 4 ; - - - - e g f < - - 1 2 2 > - ; ",
"- - < d g g d 1 2 2 2 2 2 4 3 2 2 2 2 2 8 9 7 6 5 5 3 2 2 2 3 4 7 4 2 < .   + > 2 2 2 2 6 5 5 5 2 2 3 e g g g 0 > - > 1 2 < ; - ",
"2 3 s g r e g a 3 2 2 2 t g f 7 2 2 2 e g g g g g g g g g g g g g f 5 2 2 2 2 2 2 2 2 e g g g g g g g g g g g d q ; .   X % 2 < ",
"9 p g i ; 7 g g a 5 2 5 g g g i 2 2 2 8 g g g f f g g g f g g g g p 3 2 2 2 2 2 2 2 2 0 f g g g g g g f g g g g g g i *     + , ",
"g f i o 0 f g g g f 8 3 f g g t 2 2 , - 4 f g g g g g f g g d w 6 2 2 2 2 2 2 2 2 2 2 2 2 9 u f g g g g g g g g g f g g ;     t ",
"g d $ o f g g g g g u 2 9 p y 4 2 2 - - - 1 s g g g g g d 6 ; - : < 1 2 2 2 % ; 1 1 1 1 2 2 2 3 q p g f g g f g g g g g 0 @   : ",
"6 5 < : 6 q e e 0 9 3 2 : - - < 2 2 - - - - > i g g g d 1 - - - - - - - - ; . # - - - - - - - ; ; ; < t g g g g g a t q 2 2 2 2 ",
"2 2 2 2 2 2 2 2 1 1 2 1 - - - : 4 5 - - - - - : t g d < - - - - - - - - - - X @ - - - - - - - - - - ; > 0 g g g r 2 2 2 2 2 2 2 ",
"2 2 2 < < > - - - - : 1 - - - : a f , - - - - - - 3 , - - - - - - - = + - < X O - - - - - - - , 7 t f g t i d w 2 2 2 2 2 2 2 2 ",
"2 2 2 e g g g s a u y y w 7 > 1 y g q - - - - - - - - - - - - - - : o   > 2 % X < 5 0 q e y s g g g g g g g g f y 9 3 2 2 2 2 2 ",
"2 2 2 t g g f g g g g g g g 9 o 1 g f 2 - - - - - - - - - - ; , 1 2 1 , 2 3 q p g g g g g g g g g g g g g g g g g g a 5 2 2 2 2 ",
"0 6 2 9 g g f g g g g g g g 5   $ t g g w : - - - - ; > < 1 2 2 % = 2 2 q d g f f g g g g g g g g g g f f f g g g g g d r 0 8 9 ",
"g g t 2 s g g g g g g f f g 3     # e f g d 4 - - > 2 2 2 2 2 >     + 0 g g g g g g g g g g g g g g g g g g g g g g g g g g g g ",
"s p 8 < 6 f g g g g g g g g 3 X     1 5 i g t - : 1 1 1 2 2 2 :       - i f g g g g g g g g g g g g g f g g g g g f g g g g g d ",
"2 : - - - : 6 a g f g s u 5 1 2 O   ; ; ; 1 : - - - - - , 2 2 -           O 7 t a g g g g g g g g g g g g g f g f f g g g f e 2 ",
"2 , - - - - - > s g u ; - - - ; % $ - - - - - - - - - - - , 2 -           . < 2 2 3 2 5 5 5 5 2 2 < , 1 8 s g g f g g g i 5 2 2 ",
"2 2 2 , ; - - - 4 t , - - - - - - - - - - - - - - - - - - - > ;         . > 2 2 2 2 - - - - - - - - - - - : t g g g d 7 2 2 2 2 ",
"2 2 2 2 2 1 > ; > - - - - - - - - - - - - - ; 0 9 > - - - - - ; O o     % 2 2 2 2 , - - - 2 w 9 > - - - - - - e g d 6 2 2 2 2 2 ",
"2 2 2 2 2 2 2 e g f f s 3 - - - - - - - - 6 s g g g r > - - - - - - $   - < > : - - - 3 u g g g g u 6 : - - > 1 8 4 2 2 2 2 2 2 ",
"2 2 2 2 2 2 2 9 f g g g f 2 - - - - - - 7 g g p y f g p - - - - - - %   = - - - ; 6 i g g g g f g g g f e < 2 2 2 2 2 2 2 2 2 2 ",
"2 2 2 2 2 2 2 2 4 e f g g d < - - - - > f g 0 2 2 4 s g 4 - - - - % X   - - 1 w d g g f g g g g g g g g g g e 2 2 2 2 2 2 2 2 2 ",
"2 < < 2 2 2 2 2 2 2 4 r g g s , - - - 4 g u 2 2 2 2 0 g w : - - O     % q s g g f g g g g g g g g g g g g g g u 3 2 2 2 < 1 2 2 ",
"$     @ 2 2 2 2 2 2 2 2 7 f g p : - - - 5 2 2 2 2 2 2 9 3 2 2 1 > , 9 f g f f g g g g f g g f g g g g f g g g g a 9 2 < . . @ - ",
"        : 2 2 < 2 2 2 2 2 2 i g e - - - - > 2 2 2 2 2 2 1 , , 1 5 p g f g g g g f f g s e 9 3 7 r s g g g f f g g g d u 5 > % o ",
"4 X     , 1 # + ; > : : - - > r 5 - - - - - , 1 2 2 2 1 ; - - 2 d g g g g g g g g d 9 2 2 2 2 < > ; 9 g g g g g f g g g g g g f ",
"g ; @ * - - - - - - - - - - - - - - - - - - - - - ; : ; - - - q g g g g g f g g a 4 2 1 , : - - - - - 6 f g g g g g g g g g g g ",
"3 - - - - - - - - - - - - - - - - - - - - - - - - - - - - - - 1 g g g g f g g y , > ; - - - - - - - - - , 0 r u u u u y r e w w ",
"- - - - - - - - - - - - - - - - - - - - - - - - - - - - - - - - w g g f f g g 2 - - - - - - - - - - - - - - - - - - : 1 2 2 2 2 ",
"2 , ; - - - - - - - - - - - - - - - - - - - - - - - - - - - - - ; r g g g g g f 4 - & @ - - - - ; : - - - - - - - - - - - : 4 5 ",
"t 8 2 , > - - - - - ; 5 0 7 2 ; - - - - - - - - - - - - - - - - - - < 9 p g g g u - - o @ - - - , 2 : - - - - - - - - - , u g g ",
"g g t e g e : - - 3 a g g g g s > - - = % # ; < 1 2 1 1 , ; - - - - - - - < 8 y 6 - - *   @ - - < 2 2 1 , : ; - - - - 4 d g g g ",
"g g w 9 f g d w t g g a e t d g 7 - *   . + 1 2 2 2 2 2 1 - - - - - - - - - - - - - - - @   - - 2 2 2 2 2 2 2 2 1 2 e g g g g g ",
"y w 3 2 5 u g g g f 9 : , 1 y g 1 & O   , 2 2 2 2 2 1 , ; - - - - - - - - - - & - - - - - $ - ; 2 2 2 2 2 2 2 6 p g g g g g g g ",
"2 2 2 2 2 2 6 w q 4 - - - - w g > & & & ; : ; ; - - - - - - - - - - - : 6 0 5 , < < > - - - - ; 2 2 2 2 2 2 2 r g g g p t q 6 3 ",
"2 2 2 2 2 2 2 2 2 2 : - - - ; 1 - - - - - - - - - - - - - - - - - - - 0 g g g g g g g g g g a r 3 2 2 2 1 < , , 3 1 ; - 1 2 2 2 ",
"2 2 2 2 2 2 2 2 2 2 2 < ; - - - - - - - - - - - - - - - - - - - - - - 4 d g g g g g g g g g g g 8 1 > ; - - - - - - - - < 2 2 2 ",
"2 2 2 2 2 2 2 2 2 1 < , : - - - - - - - - - - - - - - - - - - - - - : , 2 8 t d g g g g g g u 9 > - - - - - - - - - - ; 2 2 2 2 ",
"< < < < , > : ; - - - - - - - - - - - - - - - , 5 > - - - - - : , 1 2 2 2 2 2 2 0 a g g d 9 2 1 - - - - - - - - - - - < 2 2 2 1 ",
"- - - - - - - - - - - - - - - - - - = & : 5 t f g f e 3 < 1 2 2 2 2 2 2 2 2 2 2 2 2 7 4 ; ; 1 ; - - - - - - - - - - > 2 2 , - - ",
"- - - - - - - - - - - - - - - - & o o 6 d g g g g g g g u 8 2 2 2 2 2 2 2 2 2 2 2 2 2 > - - - - - - - - - - - - - ; 2 < - - - - ",
"- - - - - - - - - - - - - - - *   @ a g g g g g g g f g g g g a 7 2 2 2 2 2 2 2 2 2 2 1 - - - - - - - - - - - - ; 1 2 : - - - - ",
"- - - - - - - - - - - - - - - : X * d g g g g g g g g g f g g g e 2 2 2 2 2 2 2 2 2 2 2 , - - - - - - - - - - ; 1 2 2 < - - - - "
};
