/* XPM */
static char *_958da96597e48028526c12d6a850d73lMqs4j8cgUTt6Rhm[] = {
/* columns rows colors chars-per-pixel */
"64 64 256 2 ",
"   c gray22",
".  c #393939",
"X  c #3A3A3A",
"o  c gray23",
"O  c #3C3C3C",
"+  c gray24",
"@  c #3E3E3E",
"#  c #3F3F3F",
"$  c gray25",
"%  c #414141",
"&  c gray26",
"*  c #434343",
"=  c #444444",
"-  c gray27",
";  c #464646",
":  c gray28",
">  c #484848",
",  c #494949",
"<  c gray29",
"1  c #4B4B4B",
"2  c #4C4C4C",
"3  c gray30",
"4  c #4E4E4E",
"5  c gray31",
"6  c #505050",
"7  c #515151",
"8  c gray32",
"9  c #535353",
"0  c gray33",
"q  c #555555",
"w  c #565656",
"e  c gray34",
"r  c #585858",
"t  c gray35",
"y  c #5A5A5A",
"u  c #5B5B5B",
"i  c gray36",
"p  c #5D5D5D",
"a  c gray37",
"s  c #5F5F5F",
"d  c #606060",
"f  c gray38",
"g  c #626262",
"h  c gray39",
"j  c #646464",
"k  c #656565",
"l  c gray40",
"z  c #676767",
"x  c #686868",
"c  c DimGray",
"v  c #6A6A6A",
"b  c gray42",
"n  c #6C6C6C",
"m  c #6D6D6D",
"M  c gray43",
"N  c #6F6F6F",
"B  c gray44",
"V  c #717171",
"C  c #727272",
"Z  c gray45",
"A  c #747474",
"S  c gray46",
"D  c #767676",
"F  c #777777",
"G  c gray47",
"H  c #797979",
"J  c gray48",
"K  c #7B7B7B",
"L  c #7C7C7C",
"P  c gray49",
"I  c #7E7E7E",
"U  c gray50",
"Y  c #808080",
"T  c #818181",
"R  c gray51",
"E  c #838383",
"W  c #848484",
"Q  c gray52",
"!  c #868686",
"~  c gray53",
"^  c #888888",
"/  c #898989",
"(  c gray54",
")  c #8B8B8B",
"_  c gray55",
"`  c #8D8D8D",
"'  c #8E8E8E",
"]  c gray56",
"[  c #909090",
"{  c gray57",
"}  c #929292",
"|  c #939393",
" . c gray58",
".. c #959595",
"X. c gray59",
"o. c #979797",
"O. c #989898",
"+. c gray60",
"@. c #9A9A9A",
"#. c #9B9B9B",
"$. c gray61",
"%. c #9D9D9D",
"&. c gray62",
"*. c #9F9F9F",
"=. c #A0A0A0",
"-. c gray63",
";. c black",
":. c black",
">. c black",
",. c black",
"<. c black",
"1. c black",
"2. c black",
"3. c black",
"4. c black",
"5. c black",
"6. c black",
"7. c black",
"8. c black",
"9. c black",
"0. c black",
"q. c black",
"w. c black",
"e. c black",
"r. c black",
"t. c black",
"y. c black",
"u. c black",
"i. c black",
"p. c black",
"a. c black",
"s. c black",
"d. c black",
"f. c black",
"g. c black",
"h. c black",
"j. c black",
"k. c black",
"l. c black",
"z. c black",
"x. c black",
"c. c black",
"v. c black",
"b. c black",
"n. c black",
"m. c black",
"M. c black",
"N. c black",
"B. c black",
"V. c black",
"C. c black",
"Z. c black",
"A. c black",
"S. c black",
"D. c black",
"F. c black",
"G. c black",
"H. c black",
"J. c black",
"K. c black",
"L. c black",
"P. c black",
"I. c black",
"U. c black",
"Y. c black",
"T. c black",
"R. c black",
"E. c black",
"W. c black",
"Q. c black",
"!. c black",
"~. c black",
"^. c black",
"/. c black",
"(. c black",
"). c black",
"_. c black",
"`. c black",
"'. c black",
"]. c black",
"[. c black",
"{. c black",
"}. c black",
"|. c black",
" X c black",
".X c black",
"XX c black",
"oX c black",
"OX c black",
"+X c black",
"@X c black",
"#X c black",
"$X c black",
"%X c black",
"&X c black",
"*X c black",
"=X c black",
"-X c black",
";X c black",
":X c black",
">X c black",
",X c black",
"<X c black",
"1X c black",
"2X c black",
"3X c black",
"4X c black",
"5X c black",
"6X c black",
"7X c black",
"8X c black",
"9X c black",
"0X c black",
"qX c black",
"wX c black",
"eX c black",
"rX c black",
"tX c black",
"yX c black",
"uX c black",
"iX c black",
"pX c black",
"aX c black",
"sX c black",
"dX c black",
"fX c black",
"gX c black",
"hX c black",
"jX c black",
"kX c black",
"lX c black",
"zX c black",
"xX c black",
"cX c black",
"vX c black",
"bX c black",
"nX c black",
"mX c black",
"MX c black",
"NX c black",
"BX c black",
"VX c black",
"CX c black",
"ZX c black",
"AX c black",
"SX c black",
"DX c black",
"FX c black",
"GX c black",
"HX c black",
"JX c black",
"KX c black",
"LX c black",
"PX c black",
"IX c black",
"UX c black",
/* pixels */
"-.=.=.=.=.#.+.X. . . . . . . . . . . .X.X... . . .{ c e e e H X.+.+.+.+.+.+.+.+.+.%.=.=.=.=.=.=.%.+.+.+.+.+.+.+.X.} ` K 9 y u f ",
"=.#.#.O...| | } ] ' ' ' ' ' ' ] [ [ } | | } ] ' ) j e e r r t J | | | | | | | | | X.#.@.#.@.@.#.@.X.| | | | | | [ ) P b , 6 u g ",
"=.#.} _ _ _ _ _ ) ( ( ( ( ) ) ) _ _ _ _ _ ) ) ~ j y y u u u u i b U / ) _ _ _ _ _ _ }  . . . . . .| ] _ _ _ _ _ ^ P V b : - r h ",
"=.@.' Q W W W W W W W W W W W E T T R W ! ! E j p p p p p p p p i e u m E W W W R T R ^ ` ` ` ` ` ` _ W W W W W I D V b : = e h ",
"=.@._ W Q ~ Y U U Y W ! ! ! Q Y H H H Q ^ Q x g g g g g g g g g g h r 9 F U U P H H H H P R ! ~ ^ ^ ~ Y U U U U L D V b : = e j ",
"=.O._ W Q ^ Q U R ~ ^ ^ ^ ^ ^ ! H H H Y W x g f d d d d d d g M g f q 8 h F I I J H H H H H H J P R R I I I U U L D V b : = e h ",
"=.o._ W Y ~ ^ ^ ^ ^ Q T P P P J H H H D d s g g p u u u u i ^ *.P t 8 8 0 n D I U U K H H H H H H J J H H H L U L S b h = * e f ",
"=.X._ Q U Y ! ^ ! Y K H H H H H H H F s e r d g f p p i u I +.O.G V n s w w d K U U U K H H H H J P H H H H H K G M c j * * q f ",
"%.| _ E K J H H H H H H H H H H J P x f i e t g h l l z I o...U H H @.&.W k d f C U U U I P P P I U P H F D S Z B k r 8 * * 0 p ",
"X.| / I H H H H H H H H H H J Y R x g g d e e u ^ |  .@.O.o.~ I I U ' %.*.O.G h p k J U U U U U U U G Z Z Z V j w 8 8 0 * * 9 y ",
" .{ ! I H H H H H H H H P W ! W x g g g d r e g [ ] ] { { ) K H H J I R ] @.*.] b d f Z W Y U U U P Z Z N f 0 8 8 e s d * * 7 t ",
" .' ! I F D D F G H H J ! ^ Q x g g g f i y e F [ R H K I L H H H J I U U W o.*.+.B g g x H U U U L m p 9 0 9 u x b k d * * 7 t ",
" .' ! P Z Z Z Z A J K I ~ Q k p a s a i u u u ) [ K H H H H H H K I U U U U Y ~ ! Y F a u r g j j d 8 0 s N U K B b k d * & 5 r ",
"R ! T A b b C Z Z J U U T z i u u u u u u u n } ( H H H H H H H J L P P P P P P K H H c r r p s s s q g E ^ ^ ~ A b k d = # 2 q ",
"r g g a w q w l Z Z J L g u u u i d f f f Z ' o.~ I I K H H H H H H H H H H H H H H K P a p W ` ` ` ( L Y E ^ ^ P V x k - + 2 w ",
"n N m x a e 0 8 r c Z a r t y y f v H W O.*.#. .U P I P J H H H H H H H H H H J J K U U j s _  ._ ] ( U U E ^ ^ P D B b = + 2 e ",
"=.#. .! H x e w q q r e e y f c | &.+.....[ W K H K T W ~ ~ ~ ! Q E Y I I I I U U U T T p e U W Z A I U T ^ ^ ! L D V b * + 2 u ",
"=.#. .R H H h e e e e e e u v o.*.$.[ ~ P H H J E ^ ^ ^ ^ ^ ^ ^ ^ ^ ^ ^ ! E R T T E ^ ~ p w U W Z Z L U W ^ ~ Y L D B b * + 3 f ",
"=.#.| Y H H G s e e e e e s _  . .` K H H H H Y ^ ^ ^ ^ ^ ^ ^ ^ ^ ^ ^ ^ ^ ^ ^ ^ ^ ^ ^ W u w U Q G J U U Q ^ W U L D V b * + 5 h ",
"=.#.{ U H H H N e e e e a / [ [ _ K H H F S S D E ^ ^ ^ ^ ^ ^ ^ ^ ^ ^ ^ ^ ^ ^ ^ ~ ~ E D y q J ' U U U U W ^ R U K D V b * + 7 j ",
"-.#.] U H H J Z t y t t R [ [ _ K J J S Z Z Z Z Z P ~ ^ ^ ^ ^ ^ ^ ^ ^ ^ ~ R P A Z A Z Z g 9 d C U U U I L L J J F A V b - + 9 j ",
"=.#.` I H H H V r r r p ^ } ` L P I F Z Z Z Z Z Z Z S L E ^ ^ ^ ^ ! R P H H H A Z Z Z Z S g u j U U P J H H H H D B m c : * w h ",
"*.X.( I H H H N e e e u ^ ..T U U F Z Z Z Z Z Z Z Z F H P U Y P H H H H H H H G S A A H I Z r j L J H H H H H H D B b k ; * 0 d ",
"+.| / I H H D i e e e u ~ { U P D Z Z Z Z Z Z l 4 5 w g R ~ Y G H H H H H H H H H H J P K B e k _ K H H H L I L D B b k ; * 0 p ",
"X.[ W H D D y 8 r e e u ^ ' D B B B B B B B j #   # 2 8 s ! / H V S D D D D D D F G H D D m q d ] ) G D D D J K S B b k ; * 0 p ",
"} ) H B N t * 9 e e e u ! ! b b b b b b b f #   # 1 8 8 8 s ! / S n N B V C A A A Z B N M r < 8 D ' ( C B B C D V B b k ; = 0 p ",
"` L b b w # - q e e e u E R l l l l l l s #   $ 3 7 8 8 8 8 s ! ^ C l M B M b b b b b f $ X & 4 9 D ' ~ m b m V m b v k - : q p ",
"K v l 9 @ % 6 r e e e u W T d d d d d i #   $ 2 7 8 8 8 8 8 7 p ! ^ M x v k k k k h 3   . # : 3 5 6 J [ ! x v b v l k k * 2 e p ",
"q , * @ $ 3 e y y y t r , = * % $ $ $ O O - 3 9 0 q q q q q 0 3 : * & - ; = = = = # O $ : 2 6 8 8 7 4 , ; ; : : : : - = > 8 e t ",
"0 < @ # < e y u u u u y w ; & % % % * : 2 7 q e e e e e e e e w 6 ; % % * * * * & * : 4 e t y y u u r 4 - = * * * = : 1 6 9 8 8 ",
"8 8 5 4 9 y u i p p p i u y 0 7 7 7 8 9 q w e e e e e e e e e e e 0 8 9 q 9 6 3 3 4 6 7 t u u u u u u t w 0 8 7 7 7 8 7 6 7 8 8 ",
"s s s 0 9 f M N N N B B B B N M x k j j j j j j f s d a e e e e w w e w 9 e s s s s s d h k p t y u u u y h j j j j j f s s s s ",
"[ [ [ A y b &.=.=.=.=.=.=.=.=.=.%. . . . . . .} ` / Q S 6 r r e q w w 9 s ` [ [ [ [ [ [ | G e e e e e r S |  . . . . .| [ [ [ [ ",
"/ / / ! a g _ #.#.#.#.#.#.@.@.#.O.] ' ' ' ' ' ) ! R Z d & > 8 q w e e d ~ ) _ ) ( ( ( _ S e e e e e u A ' ' ' ' ' ' ' ' ' ` _ ) ",
"Q ! ^ ^ b i V { { [ [ [ ] ' ' ' _ ) ( ( ( ( ( ~ I Z l d $ @ 5 0 e e s E ! ! ! ! ! ~ ^ Z e e t f N I ! ! ! ! ! ! ! ! ~ ~ ! ! ! ! ",
"R E E E L u a R W W W W E E E E W I J K T W W E D b l d $ + 5 e e d R Y T R R E W Q A i f B P I I I I I I I I I I R W W R U I U ",
"J H H H P h u C U I L J H H H H F Z Z Z S U U U K C m l - $ 7 e g ( ) _ ~ ~ ^ ^ ^ G g k ~ [ U K H H H H H H H H K U U U I L J J ",
"H H H H P V t f J H F A A A A Z Z Z Z Z D U U U L D V b : % 7 u [ ] } ` ^ ^ ^ ^ G g g z } { U I J H H H H H H J P U I J H H H H ",
"H H K P P G t e A H A Z Z Z Z Z Z Z Z D I U U U L D V b : & 7 j  .[ } ` ^ ^ ^ G g g f j ` { U U U I I I U U I I U P H H H H H H ",
"J I U I L I m y j B b b b b b V Z Z D I Y R W W Y H V b : * 7 j ..| { ` ^ ^ G d a p u s ' } U U U U T R E E T U P H H H H H H H ",
"I U I U ~ _ ..k d t w 9 8 8 8 0 Z F J Y ~ ^ ^ ^ W I D b : * 7 j  .} _ ~ R Z i y u u i k  .O.R U U R ~ ^ ^ ^ ^ T H H H H H H H J ",
"Y Q ! ^ ^ ' *.Q B m h w 8 8 q e B U ~ ^ ^ ^ ^ ^ W I F b : * 8 j  .[ _ Q C a a p p a g z  .O.R U U T ~ ^ ^ ^ ^ ~ U P K H H H L U ",
"W ^ ^ ^ ^ _ *.*.*.*.o.P q q e e F ^ ^ ^ ^ ^ ^ ^ W J V c - & 8 j  .] _ J g g g g g g g j ] { U U U U R ^ ^ ^ ^ ^ ^ ^ ~ U L I U U ",
"Y ! ~ ^ ^ ^  .+.+.+.$.O.T u t r J ^ ^ ^ ^ ^ ^ ^ U D M k = % 9 i ! T A g g g g g g f s i z J J K U U U E ~ ^ ^ ^ ^ ^ ^ ^ ~ W E U ",
"U U Y ! ^ ^ ^ ^ ^ ^ ( #.*.( g s S Y E W Q Q W T L S n k = % 9 e e e u p s f g g j N H f 8 r B Z K U U U Y T R E ! ^ ^ ^ ^ ^ ^ R ",
"P I U R ~ ^ ~ R R ! ^ ( #.*.V f I Q W R Y U U U L S b k = % 9 r w e u p g B T { _ / / R r 8 r B J I I I U U U U U T Q ~ ~ ~ Q I ",
"H J I U Y T Y U U U Y R W ' n g I ^ ^ ^ Q I U U K C b k = % 0 r r p A ( @.*.&.[ ! T K A B r 9 a G H H H J L I U U U U U L K H H ",
"H H J P I I I I P K J L W ^ b f I ^ ^ ^ ! K L K D B b k = % 0 p W ] +.&.$.} R D Z Z Z Z Z S f u p D H H H H H J K K K J H H H H ",
"H H H H H H H H H H H Y ^ ^ b g I ^ ^ ^ I H H H D B b k = * q j ] ] [ / J S A Z Z Z A G P U L f r p D H H H H H H H H H H H H H ",
"H H H H H H H H H H H Y ^ ^ b f I ^ ^ R H H H H D B b k - = 0 k | ] ) W U U U I P I U U U U U L d r p D H H H H H H H H H H H H ",
"L L J H H H H H H J L I ! ^ b g I ^ W J H J L K D B b c : = 0 z O.| _ W U U U U Y ~ ^ ~ Q E T U G p e p D H H H H H H H H H H J ",
"U P P K J J J K P U U U U ! b g I W J H G J K J S B b b ; $ 5 z +.| ` ^ E E R Y T ^ ^ ^ ^ ^ ^ ~ T F p e p D L I P P I U J H L U ",
"H Z Z A K U U U U U U K H J g u Z H G S Z Z Z Z Z B n v * + 3 h @...| ` ^ ^ ^ ~ T T E Q ^ ^ ^ ^ ^ Y D p e d W ^ ^ ^ ^ ^ W I U U ",
"F Z Z Z H U U U U I J H H H s e N S Z Z Z Z Z Z V B m c & + 3 g +.+. .` ^ ^ ^ ^ ^ ! E R Y Q ^ ^ ^ ! I G p t z Q ^ ^ ^ ^ E U U U ",
"I J J K U U U I K H H H K K a 9 b Z Z Z Z Z Z Z B B M x & + 3 h @.@. .` ^ ^ ^ ^ ^ ^ ^ ^ E Y ! ^ ^ ^ ^ ~ J p r l Q ^ ! T U U U U ",
"U U U U U U U L F l q 8 q w 9 8 v Z Z Z Z Z Z Z B B N l % + 3 h #.@. .` ^ ^ ^ ^ ^ ^ ^ ^ Q U Y ! ^ ^ ^ ^ U D p y l R Y U U U U U ",
"L L L L L L L N 5 @ o O % > 6 8 9 y b B B B B B N B N g $ + 3 g +.o.{ ! R J J L P I Y U L L L L I I I P H J G a r s H L L L L L ",
"A A A Z S B w % + $ ; 1 4 7 8 8 8 8 8 s v b b b n C B g $ @ 3 f | | Q L Z B B B C S D D D D D D D D D D D D D Z t 8 r B Z Z Z A ",
"l l l j w & + & 1 8 w w 8 8 8 8 8 8 8 8 q g x b B B B g $ $ 4 s _ U B n b b n B V V V V V V V B m n n m B V V M j 3 > 4 h l l l ",
"d d w * . X - 7 e y u q 8 8 8 8 8 8 8 9 q y g v b b b l $ - 6 d K l k k k k k z c v v v b v x l k k k k x v b l d a , = , a d d ",
"% $ . X # : 7 t u u u t 0 8 8 8 9 w t u u u t 6 > : : ; : 7 r y 9 ; = = = = = = = = = - : : = = = = = = = - - ; - ; : 6 9 > * * ",
"* % * > 2 5 w u u u u u u u u u u y y y y y y 0 : = : 2 8 e y u y 4 & $ $ $ $ $ $ $ $ $ * * % $ $ $ $ $ $ $ $ % - > 1 3 q 0 > * ",
"q e w 0 q e u u y y y y y y y t r e e e e e e w 9 8 9 0 w r t u u y w 7 7 8 8 8 8 8 0 r r r w 9 8 7 6 6 6 6 6 8 0 q w w e t r q ",
"N N B N N v x l j j j j j j j j j j j j j j j j j j p e e e d z c c c c c c c c c v N N N N N M v c x l l l z x x z l j u u u p "
};
