/* XPM */
static char *e2712fe7190a4ed180591a4aa3a08796oflrGbLBHSG61iF2[] = {
/* columns rows colors chars-per-pixel */
"16 16 14 1 ",
"  c gray31",
". c #5A595A",
"X c gray38",
"o c gray39",
"O c DimGray",
"+ c #6A6D6A",
"@ c gray44",
"# c #787678",
"$ c gray48",
"% c gray50",
"& c gray51",
"* c #888888",
"= c #8B898B",
"- c #9C999C",
/* pixels */
"&*******&*&&$&$.",
"*@$@$@@$$$$@@@$.",
"*$@&@@$$$@$$O@@.",
"&@O@$$@O@$@O@OO.",
"&OXOO@$$@OO@Oo@ ",
"$OX@@OOOO@$OX@O ",
"XXXXOOXXXX.XX.. ",
".       .      .",
"---- =----------",
"#=== -=%===*%==%",
"=%%=.-%#=#*%%=%%",
"%==% -#%#&&%=%%=",
"%%%%.=##%=%##%##",
"##+#.=%%##%%#%%#",
"++++.+++++++++++",
"oo......o.oooo.."
};
