/* XPM */
static char *_357a238e1f64ccaf0bd643839ac2a3cWfOOLg1ChbxXUbLQ[] = {
/* columns rows colors chars-per-pixel */
"64 64 164 2 ",
"   c #2E3423",
".  c #303725",
"X  c #333927",
"o  c #32372A",
"O  c #353C2A",
"+  c #383F2B",
"@  c #373933",
"#  c #3A3C35",
"$  c #3D3E3C",
"%  c #3C442E",
"&  c #3E4432",
"*  c #404536",
"=  c #424B33",
"-  c #41453C",
";  c #464D3B",
":  c #484F3D",
">  c #475136",
",  c #495237",
"<  c #4B543A",
"1  c #4E593C",
"2  c #515C3E",
"3  c #434343",
"4  c #464844",
"5  c #4A4D44",
"6  c #4C4D4C",
"7  c #4D5342",
"8  c #4F5840",
"9  c #4F514C",
"0  c #515646",
"q  c #535C43",
"w  c #51544C",
"e  c #555C4A",
"r  c #585D4F",
"t  c #535353",
"y  c #575953",
"u  c #5A5D54",
"i  c #5C5C5C",
"p  c #576243",
"a  c #596545",
"s  c #5C6946",
"d  c #5B654A",
"f  c #5E6A4A",
"g  c #5E6452",
"h  c #5F6852",
"j  c #5F615B",
"k  c #616D4B",
"l  c #64714E",
"z  c #616656",
"x  c #636C53",
"c  c #61635E",
"v  c #666C5B",
"b  c #696F5E",
"n  c #677252",
"m  c #6A7654",
"M  c #6C7856",
"N  c #677058",
"B  c #6B735C",
"V  c #6E7A5A",
"C  c #717D5E",
"Z  c #646464",
"A  c #676963",
"S  c #696D64",
"D  c #6B6C6B",
"F  c #6D7263",
"G  c #6F716A",
"H  c #717666",
"J  c #737C64",
"K  c #71746C",
"L  c #757B6B",
"P  c #787E6D",
"I  c #737373",
"U  c #777875",
"Y  c #797B75",
"T  c #7B7B7B",
"R  c #768163",
"E  c #788365",
"W  c #778068",
"Q  c #7B846B",
"!  c #7F896C",
"~  c #7C8174",
"^  c #7D8079",
"/  c #7F827A",
"(  c #7F817C",
")  c #818B6E",
"_  c #808774",
"`  c #808874",
"'  c #828A74",
"]  c #838A76",
"[  c #848D73",
"{  c #80837A",
"}  c #808479",
"|  c #818679",
" . c #81847B",
".. c #80807F",
"X. c #81827F",
"o. c #82857D",
"O. c #83877C",
"+. c #83877D",
"@. c #83867F",
"#. c #82847D",
"$. c #868B7D",
"%. c #869074",
"&. c #889277",
"*. c #808080",
"=. c #818181",
"-. c #828380",
";. c gray51",
":. c #838383",
">. c #838382",
",. c #848680",
"<. c #848583",
"1. c #848484",
"2. c gray52",
"3. c #858684",
"4. c #858685",
"5. c #868785",
"6. c #868686",
"7. c gray53",
"8. c #848484",
"9. c #858881",
"0. c #878A80",
"q. c #868883",
"w. c #868884",
"e. c #878887",
"r. c #878885",
"t. c #8A8F82",
"y. c #8B8D86",
"u. c #8B8E86",
"i. c #888987",
"p. c #888888",
"a. c #898989",
"s. c #898A88",
"d. c #8A8B88",
"f. c #8A8B89",
"g. c #8A8B8A",
"h. c #8B8B8A",
"j. c #8B8B8B",
"k. c gray55",
"l. c #8D8D8D",
"z. c #8E8E8E",
"x. c #898989",
"c. c #8C9185",
"v. c #8F918B",
"b. c #8F918B",
"n. c #92948F",
"m. c #909090",
"M. c #929292",
"N. c #939393",
"B. c #949591",
"V. c gray58",
"C. c #959595",
"Z. c gray59",
"A. c #939393",
"S. c #989A94",
"D. c #989898",
"F. c gray60",
"G. c #9A9A9A",
"H. c #9B9B9B",
"J. c #9D9D9C",
"K. c #9D9D9D",
"L. c #9F9F9E",
"P. c #9B9B9B",
"I. c #A0A0A0",
"U. c #A0A0A0",
/* pixels */
"I.I.I.I.I.H.H.H.m.Q V C C V R R C C R E $.%.C C V C ) C ] y.B.B.G.G.F.F.F.F.F.F.F.K.U.U.U.U.U.U.K.F.F.F.F.B.] E E n l b t i t S ",
"{ H.H.H.Z.m.m.m.| V V M V M M V M V C C Q C M V M V C C J 2.M.N.N.N.N.N.N.N.N.N.N.Z.K.F.K.F.G.K.F.Z.N.N.N.N.N.P k x 2 a 5 9 : u ",
"Y H.m.j.z.j.j.z.9.J J @.~ ~ m l k M m n C P  .P #.@.$.h.h.k.k.l.h.h.a.k.k.h.k.k.k.k.M.N.N.N.N.N.N.N.a.a.z.h.2.M a k 2 a 1 3 w j ",
"J.H.z.2.2.2.=.2.2.3.2.:.3.P m f b k k L ~ >.2.2.7.7.2.7.7.7.1.1.7...U T >.2.2.2.;.*.;.2.k.k.z.z.z.z...;.>./ P H 2 2 2 2 2 * = < ",
"L.H.k.3.2.2.=...T ..2.2.2.:.H B U D k >.L Y 1.a.i.7.a.a.a.a.a.7.i.7.T I U *.*.T I T T T *.;.2.2.a.a.7.......T x a 2 2 2 * * < G ",
"x y.k.:.8.j.2.Y P ~ i.i.i.j.e.2.T U k U 7.a.a.7.1.7.1.1.1.1.7.a.7.2.U I I U T *.T T I T U U T T T *.>.T T T ^ x p 2 , = . + , r ",
", O.k.3.T 2.{ n P e.3...T T T T T U F K ..>.7.7.=.......=...1.a.7.U I I I I I *.*.*.T T T T U T T U K G U T T F p , = .     O = ",
"1 O.k.3.=.=.H s B F v I T U T T U T L U U T 7.7.i.=.=.*.*...=.=.F F G G F U I *.T *.T T T I T U T S x k b K I U a 2 > .   .   * ",
"b.V.l.8.T T v s s s s N Y T U T T ..2.7...U T a.7.7.i.i.=.....F k k k k m P Y >.........T T *.T T Y F v d a k G a 2 , % X + + 1 ",
"Z.m.j.T U K s s s s s s I Y T *.1.a.7.a.2.T U ..2.7.7.2...K x p a k a k n H i.i.....T ......*.*.*...U S k a 2 z p p 1 = + = 2 v ",
"m.m.2.*.T K a s a a s s B :.:.7.a.7.a.7.2.U T U U U G Y F k p k k x N k G ;.p.p.6.2.7.6.2.*.....*.T S v D z 2 a p 2 1 = . * 1 Z ",
"> Y 7.T I U v p s s s a B 7.j.7.7.a.7.7...T U U k k k k 2 k k a k K ^ Y *.*.7.7.a.a.7.a.a.*.......b d a D a a l 2 1 , , = . * i ",
"< 2.2.T I I I d f a s l =.7.8.:.>.>.>...H B T N p p k a k x k k U T *.*.*.*.*.;.*.*.*.*.*.T ^ ..B s a p k a k m 2 , , , , % % < ",
"2.H.m.=.I I I I S d a I 2.7.*.*.......^ m M n k k k k k b I k z T T T ..T T T T T U U T T T T U k k k k k k n m 2 < 2 1 , % * > ",
"Z.H.Z.j.U U I I I v F *.*.*.*.T >.2.>.P n n B x B b x x U I I U U T U U U T T T T T T T *.*.U k s s k k l m M m k e Z j 4 $ 4 ; ",
"J.H.V.e.T U I I I F K T T T T Y P J k k k P =.....^ ^ T T U T U T U T U T U U T U T *.*.*.T *.D p p s s H m m m l K K D 3 $ 6 c ",
"L.H.v.Y Y T U U U U U T I *.6.6.{ n k k N T T U U T ;.;.7.7.7.2.2.;.*.*.*.*.*.*.*.*.;.;.U I I D s p p x Y m k k F U I D 3 $ 6 Z ",
"S.` R M F T T U U T T U U *.,.b k k k N G U U T *.a.a.a.a.a.a.7.a.a.2.p.;.;.*.;.*.;.7.7.U I G k f s s B 8.~ l L T U D D 3 $ 6 D ",
"L.n.$.m x K G U T U U T T T I z k F I U T T U ;.a.a.a.a.7.a.7.a.p.p.p.p.2.a.a.p.7.7.a.1.I I S k k k k k N 3.L T T U I D 3 $ 6 I ",
"I.H.$.k s s a K I I T U I T U v z U U T I U I U *.a.7.a.a.7.a.7.p.p.p.p.p.a.a.2.7.7.1.I I I S k k k k k k Y =.*.T I I D 3 $ t D ",
"U.D.~ d s s s s D T T U T U U U T U T I I I I I I T a.a.a.7.a.a.p.a.p.p.2.;.*.I I I I I I I T K J k s s f H T T I I I D 3 $ t I ",
"L.n.{ L S s s K T T T T T T T T T ..U I I I I I I I I T ;.a.7.a.p.2.;.*.U T T I I I I I I T *.*.T s x F s K U T I I D D 4 3 t I ",
"L.Z.j.T U v v Y T I T I T *.*.*.*.U I I I I I I I I I T T *.*.T T T I T T U T I I I I T *.T T T Y k v U f F U U T I D Z 3 3 t D ",
"H.N.a.*.U U U Y T U T T U *.*.T I D v r v I c u S Z U U T U T U I U S T U z S T T U T T *.I T I T B I T K T *.T I D D Z 3 3 t D ",
"Z.m.8.U I U T T U I I I U U U D D 2 2 1 2 A D D e 2 K K G I G G Z c 2 b F p p k b U T U U I I I U U U U U U T T I I D Z 3 3 t Z ",
"b.h.U I I I I I I I I I I D D D 1 < < , < g v 0 < < Z D D D D i q q 1 2 q 2 1 2 2 z K D I D D D D D D r D D I U I I D Z 6 3 t Z ",
"l.c Z D D I I D D D D D D Z Z Z = = = = * : j < < > : r c w c : < < > < 2 q 1 0 2 : i Z Z Z Z Z Z Z D u w D D K D D D Z 4 3 5 Z ",
"T e c D D D D D Z Z Z Z Z c c -             % * + .   . . . X   . . = , : Z r Z Z i + 9 Z i Z Z c Z Z Z O t y ; Z Z Z Z * ; 0 Z ",
"t 4 3 4 4 4 4 4 3 3 3 4 3 3 $     X O O X   X X O O . O O X O X .   X + O - 3 3 3 3 3 O 3 $ 3 3 3 3 3 3 O . + . $ 4 3 & % = : y ",
"t 6 3 3 3 3 3 3 3 3 - ; 3 3 * o . X + * = X   + = * * = = = * = = = % = * * * $ 3 $ $ # # 3 3 3 3 3 3 $ = * = = % * % = % = ; 4 ",
"t t t 6 t r t y i x j d z i N k = + , k > O   + 2 = = , = = ; < s k , = = p , 5 9 6 6 6 : t t t t u x x 2 1 p p s q = p 4 6 5 5 ",
"c i i i Z $.J K K ] %.%.%.] %.%.) N C E k < 2 q M 2 < u a 0 y b Z H N , k C V B i i c Z c Z Z S S C E J E J k s J R 1 B c c i c ",
"z.z.n.k.] ! ) ! ! ) ) E ) ) &.%.) C C V C C V M x L 2.I 6 i t i V.N.Q C M M C C  .m.m.m.N.N.V.n.Q C M C V C R E Q E C J n.m.m.m.",
"j.j.i.@.$.v.Q C R M R R C ) ) E V M M M M M m k p T I i 3 3 t Z N.m.} m n m C m m 2.h.l.h.P L m.| l l m n N $.y.k.{ Q L z.l.h.j.",
"2.2.j.j.j.z.m.@.m l l l l R m l k k k k k l k k k G D i 3 $ t Z V.l.2.n l l l n V 2.2.3.3.k B 2.P s k n k k H N Y 3.Y { 2.a.2.2.",
"=.=.=.=.2.=.2.=...l s a a a a a p p p p p k k k k Z Z i 3 $ 6 Z V.m.2.C m C m M J 3.{ C J m k m k s k k B s s B T 3.o.3.=.*.T *.",
"T U U U T =.*.*...Y v a p a p p p p p p q k k k k z D Z 3 3 t Z N.m.h.2.P 2._ V M M M m l k k k s k s K U F K U T T *.*...T T U ",
"T T U T T *.T T U K K a p p p p p p a s a k k k k v I D 3 3 t Z N.m.N.l.o.2.2.} C M m l k k k k k L H Y T U U T T *.*.T U T U T ",
"T T T T T T T T F d I v a p p p p e b H T n k k k D G D 4 3 t Z N.m.N.l.2.a.2.a...M n l l l k k k N H T T T T ..*.T T U U U T T ",
"T T *.*.T T T T U F I I S p p p s k K ..*.P J L B k D D 3 3 6 Z Z.N.m.l.a.a.h.2.3.{ Q m M M n k k k M B L C C H T T T U T U T U ",
"T T T =.7.p.p.p.8.T U I I z a k I U T ..6.a.a.a.2.G e S 3 3 6 Z N.N.h.2.:.=.*.*.*.*.Y m m m m k k k M M M M M J I T T U T U T T ",
"=.6.6.p.p.p.p.p.a.8.U U I z s S T T 6.j.a.2.a.2.2.T k i 4 3 t Z N.m.m.2.*.*.8.8.*.8.2.N k k k k k l M M M M M o.*.*.T U U U T *.",
"6.7.7.p.p.p.p.p.2.a.*.U K k k k H 2.j.2.2.a.a.a.;.T G j 3 3 t Z N.m.h.l.7.a.7.a.j.i.i.Y s k f s k L n n l n m  .6.a.a.*.T *.*.*.",
"*.6.7.p.p.p.p.p.a.a.a.L m m m k k ..2.j.a.a.a.2...I I Z 3 3 t Z N.m.h.z.a.7.a.7.2.i.2...H I S a a Y L l k k k k S *.a.7.p.:.:.T ",
"*.*.=.6.p.p.p.p.a.a.2.C M M M M m Y >.8.6.6.6.=.T I D Z 3 $ t Z V.z.l.2.8.a.a.a.2.T U I I I S a p b ..L x k k k k L 8.a.p.p.p.;.",
"T *.T =.7.p.a.=.>.2...l n m m C { 6.8.>.*.T T ..T I D Z 3 3 t Z V.z.h.2.8.a.a.6.U U I I I I I A k K T *.T n s k k H H 6.7.7.:.*.",
"T T *.*.=.=.*.T *.*.B k k n M X.2.} 2.i.6.T *.*.T I D Z 3 3 t Z V.z.m.l.a.a.2.T I I I I I I I T T T U F S x k v k s x *.T T U T ",
"T U T T T =.T *.T T H k n m M J L M V >.6.T T T I I D Z 3 3 t Z V.z.z.h.a.=.U I I I I I I I T *.U T U x s s b N s s c T I T T U ",
"U U T U I T T T I T U k B M M M m m m C H b T U U D D Z 3 3 t Z N.z.a.2.U U U I I I I U T T *.T T T T S S z S I x s x U T T U T ",
"U T U T T T I T I T B f m M M M m n k l k k U U U I D Z 3 $ 4 Z N.z.j.1.*.*.T *.T *.*.*.*.*.*.*.T T T U U I k T T L k H U U T U ",
"T T T T I T T I T D k f k k m C x k B K a k U T I D D Z 4 @ 5 D F.N.k.2.*.*...T *.2.a.6.7.1.*.*.T U U T U T I I U T b B T T U T ",
"*.T T T T T T T T U d s s s k L k k b U a 2 x U U I D I 3 o : Z G.N.k.a.;.1.=.=.*.a.7.a.7.a.a.7.;.U T U T U T *.T T M M I I T *.",
"T I I I T *.*.*.*.*.L G x s F K x v S I G A v z I I D Z $ o 5 Z G.C.N.z.j.6.7.6.*.;.1.2.7.7.a.7.p.*.U T T T p.p.j.X.M m B T *.*.",
"I I I I T *.*.*.*.T T U k K U U A I I I I I I k D I I i   + < S N.N.B.k.7.i.j.6.a.2.1.;.*.2.7.a.p.6.T T T T 7.7.2.6.,.>.=.*.*.*.",
"*.T I T T T *.T T U U T S U U I I I I I I I c A I I D D o O % = < _ m.@.i.7.7.a.7.a.7.a.1.*.2.a.p.p.p.p.T T T 1.j.2.6.*.*.T T *.",
"*.*.*.*.*.*.*.T U T U T ..U v I I I I I I I D D D I D Z $   . O = ' c.C U 7.a.7.a.7.a.7.2.*.*.6.p.p.p.p.*.U I *.6.6.*.*.*.*.*.*.",
"T T T T T T T T D S U U I I D G I D I D I I D I D I I c $ @   O , C ) C B T T T *.T *.*.*.T T T *.T ..T T U T T T T T T T T T T ",
"I I I I U U I v z z Z G D D D D D D D D D D D D D I D # $ o   + k x b z b K I D I I U I I I U U I U U U I U U U U I I I I I I U ",
"D Z D Z D Z D q 0 r r D Z Z D Z Z D Z Z Z Z D D I G G o @ $   * r ^ K D D D D D I I D I I I D D q c Z Z D I I D Z Z D Z D Z Z D ",
"i Z i Z i c Z Z 0 + * Z Z Z c i i Z c c Z Z D D D D Z * # + * , r Z Z Z Z Z Z Z Z D D D D D i # . o o o O 6 Z w i i i Z i Z i i ",
"$ 3 $ 3 $ 3 3 4 + X + & $ 3 $ $ 3 3 3 3 4 4 4 4 3 4 6 3 4 = = = 4 3 3 3 4 3 3 3 3 3 3 3 4 4 $ O X O X . . X o O + 3 3 3 3 3 3 3 ",
"3 $ $ $ $ $ * * = = = = 3 * 3 3 3 3 3 3 3 3 3 - 3 3 4 6 : = = > : 6 3 3 3 3 3 3 3 3 3 $ 3 - * ; = $ + . # * + = = = * 3 3 3 3 3 ",
"t i t t t ; e d d p p < , d 5 t 9 y g y i i y j z x j x 2 < 5 e 5 i t t t t t t t t t i i 9 t w 9 6 9 6 t 0 = 2 , * * 9 t t t t ",
"D D I D G v D S H E R C J R B B C ) J ) C P C ) J E J J z < c Z Z D D Z D D D Z Z D I D G D K D S S D Z Z m q R C 2 q c i i i i "
};
